# xmcd CD database file
#
# Track frame offsets:
#	150
#	9618
#	19771
#	34268
#	50467
#	73803
#	85121
#	96193
#	105673
#	117562
#	128116
#	138250
#	150496
#	160695
#	176049
#	186352
#	199324
#	210209
#	216962
#	226571
#	233813
#	249061
#	260274
#	274716
#	282981
#	293995
#	306059
#	318784
#	326376
#	341161
#
# Disc length: 4719 seconds
#
# Revision: 2
# Processed by: cddbd v1.5.2PL0 Copyright (c) Steve Scherf et al.
# Submitted via: CDex 1.51
#
DISCID=a5126d1e
DTITLE=Various Artist - 10 Years 100 Hits
DYEAR=2000
DGENRE=Pop
TTITLE0=You're my heart, you're my soul
TTITLE1=YMCA
TTITLE2=Disco
TTITLE3=Sha La La
TTITLE4=To be number one
TTITLE5=Hey hey guy
TTITLE6=Miss you finally
TTITLE7=My Ho My
TTITLE8=Butterfly
TTITLE9=Superhero
TTITLE10=Boom Boom Boom
TTITLE11=Kiss
TTITLE12=This Is How We Do It
TTITLE13=Wedgy
TTITLE14=Abracadbra
TTITLE15=Space Invaders
TTITLE16=Hero
TTITLE17=Loveline
TTITLE18=Making Love Out Of Nothing All
TTITLE19=Cartoon Heroes
TTITLE20=Reality
TTITLE21=In and Out
TTITLE22=2 Time
TTITLE23=Maximum Overdrive
TTITLE24=Calcutta
TTITLE25=Lemon Tree
TTITLE26=Moonlight Shadows
TTITLE27=No Limit
TTITLE28=The Sailor Song
TTITLE29=Tarzan and Jane
EXTD=YEAR: 2000
EXTT0=
EXTT1=
EXTT2=
EXTT3=
EXTT4=
EXTT5=
EXTT6=
EXTT7=
EXTT8=
EXTT9=
EXTT10=
EXTT11=
EXTT12=
EXTT13=
EXTT14=
EXTT15=
EXTT16=
EXTT17=
EXTT18=
EXTT19=
EXTT20=
EXTT21=
EXTT22=
EXTT23=
EXTT24=
EXTT25=
EXTT26=
EXTT27=
EXTT28=
EXTT29=
PLAYORDER=
